<svg xmlns="http://www.w3.org/2000/svg" viewBox="0 0 100 100"><path d="M19.4 38.5c-.3 2.8 0 5.8 1.6 8.3 2.2 3.6 6.5 5.5 12.8 5.6v28.3H28c-.6 0-1 .4-1 1s.4 1 1 1h13.5c.6 0 1-.4 1-1s-.4-1-1-1h-5.8V52.5c6.3-.2 10.6-2 12.8-5.6 4.3-6.9-1-17.5-1.2-17.9-.2-.3-.5-.5-.9-.5H31.8c-.4-5.1-4.6-9.1-9.8-9.1-5.4 0-9.8 4.4-9.8 9.8.1 4.3 3.1 8.2 7.2 9.3zM47 45.8c-2 3.2-6 4.7-12 4.7h-.4c-6 0-10-1.6-11.9-4.7-1.7-2.7-1.6-6.2-1-9.2 1.3.4 3 .9 5.5.9 3.4 0 5.3-.8 7.1-1.5 1.7-.7 3.3-1.3 6.4-1.3 3.1 0 4.7.7 6.4 1.3l.6.3v-.1c.8 3.2 1 6.8-.7 9.6zm.3-11.9c-1.6-.6-3.4-1.2-6.5-1.2-3.4 0-5.3.8-7.1 1.5-1.7.7-3.3 1.3-6.4 1.3-2.4 0-3.8-.4-5-.8.5-1.9 1.2-3.5 1.5-4.3H46c.3.7.8 1.9 1.3 3.5zM22.1 21.3c4.1 0 7.4 3.1 7.8 7.1h-6.8c-.4 0-.7.2-.9.5-.1.2-1.7 3.5-2.5 7.6-3.2-1-5.4-4-5.4-7.4 0-4.3 3.5-7.8 7.8-7.8z"/><path d="M19.6 29.1c0-.6-.4-1-1-1h-2.1c-.6 0-1 .4-1 1s.4 1 1 1h2.1c.5 0 1-.4 1-1zm2.5-2.5c.6 0 1-.4 1-1v-2.1c0-.6-.4-1-1-1s-1 .4-1 1v2.1c0 .5.5 1 1 1zm-3.2 4.3l-1.5 1.5c-.4.4-.4 1 0 1.4.2.2.5.3.7.3s.5-.1.7-.3l1.5-1.5c.4-.4.4-1 0-1.4s-1-.4-1.4 0zm5.7-3.3c.3 0 .5-.1.7-.3l1.5-1.5c.4-.4.4-1 0-1.4-.4-.4-1-.4-1.4 0l-1.5 1.5c-.4.4-.4 1 0 1.4.2.2.4.3.7.3zm-5.7-.3c.2.2.5.3.7.3s.5-.1.7-.3c.4-.4.4-1 0-1.4l-1.5-1.5c-.4-.4-1-.4-1.4 0s-.4 1 0 1.4l1.5 1.5zm48.8 25.6v28.3h-5.8c-.6 0-1 .4-1 1s.4 1 1 1h13.5c.6 0 1-.4 1-1s-.4-1-1-1h-5.8V52.9c6.3-.2 10.6-2 12.8-5.6 4.3-6.9-1-17.5-1.2-17.9-.2-.3-.5-.5-.9-.5h-1.6l1-1.4c.4.1.8.2 1.2.2 2.2 0 4-1.8 4-4 0-1-.4-1.9-1-2.7l1.8-2.6c.3-.5.2-1.1-.2-1.4-.5-.3-1.1-.2-1.4.2l-1.9 2.6c-.4-.2-.9-.2-1.3-.2-2.2 0-4 1.8-4 4 0 1.1.4 2 1.1 2.8l-1.8 2.5H56.9c-.4 0-.7.2-.9.5-.2.4-5.5 11-1.2 17.9 2.3 3.6 6.6 5.4 12.9 5.6zM81 21.5c1.1 0 2 .9 2 2s-.9 2-2 2-2-.9-2-2 .9-2 2-2zm-.2 24.7c-1.9 3.1-5.9 4.7-11.9 4.7h-.4c-6 0-10-1.6-11.9-4.7-1.7-2.8-1.6-6.5-.9-9.6v.1l.6-.3c1.7-.7 3.3-1.3 6.4-1.3 3.1 0 4.7.7 6.4 1.3.8.3 1.7.7 2.7 1 1.2.3 2.6.5 4.4.5 2.5 0 4.2-.4 5.5-.9.7 3.1.7 6.5-.9 9.2zm-1-15.4c.4.8 1 2.4 1.5 4.3-1.2.4-2.7.8-5 .8-.9 0-1.7-.1-2.4-.2l3.5-5h2.4zm-22.2 0H75l-3.2 4.5c-.7-.2-1.3-.5-1.9-.7-1.8-.7-3.7-1.5-7.1-1.5-3 0-4.8.6-6.5 1.2.4-1.6 1-2.9 1.3-3.5z"/></svg>