<svg viewBox="0 0 61.19 54.06" fill="currentColor" fill-opacity="0" stroke="currentColor" stroke-width="2" focusable="false" aria-hidden="true" role="presentation" stroke-linecap="round" stroke-linejoin="round"><path class="cls-1" d="M23,3.76c.08.47,1.6,9.42,1.6,12.84,0,5.21-2.77,8.93-6.86,10.42L19,50.75a2.39,2.39,0,0,1-2.39,2.52H10.22a2.4,2.4,0,0,1-2.39-2.52L9.12,27C5,25.53,2.25,21.8,2.25,16.6c0-3.43,1.52-12.37,1.6-12.84.32-2,4.52-2,4.78.11V18c.13.33,1.5.31,1.59,0,.14-2.53.79-13.88.8-14.14.33-2.07,4.45-2.07,4.77,0,0,.27.66,11.61.8,14.14.09.31,1.48.33,1.59,0V3.87C18.44,1.72,22.65,1.74,23,3.76ZM34.85,32.24l-1.5,18.44a2.39,2.39,0,0,0,2.38,2.59h5.58a2.39,2.39,0,0,0,2.4-2.39V4.64a2.4,2.4,0,0,0-2.4-2.39c-8.22,0-22.06,17.79-6.46,30Z"></path></svg>